# xmcd CD database file
#
# Track frame offsets:
#        150
#        16160
#        30720
#        45805
#        65690
#        80720
#        94732
#        112027
#        129382
#        143810
#        156977
#        175787
#        190482
#        198575
#
# Disc length: 3063 seconds
#
# Revision: 0
# Processed by: cddbd v1.5.2PL0 Copyright (c) Steve Scherf et al.
# Submitted via: CUERipper 2.1.2a
#
DISCID=be0bf50e
DTITLE=Rondò Veneziano - La Piazza
DYEAR=2002
DGENRE=Classical
TTITLE0=La Piazza
TTITLE1=Andromeda
TTITLE2=Festa Celtica
TTITLE3=Luna In Laguna
TTITLE4=Symphonic Run
TTITLE5=Ronda di Stelle
TTITLE6=Notturno Romantico
TTITLE7=Le Vele
TTITLE8=Abissi
TTITLE9=Ode Russa
TTITLE10=Piano su Piano
TTITLE11=Note di Notte
TTITLE12=Gioco Finale
TTITLE13=Sinfonia Corale
EXTD=
EXTT0=
EXTT1=
EXTT2=
EXTT3=
EXTT4=
EXTT5=
EXTT6=
EXTT7=
EXTT8=
EXTT9=
EXTT10=
EXTT11=
EXTT12=
EXTT13=
PLAYORDER=
